<svg height="512pt" viewBox="0 -20 512 512" width="512pt" xmlns="http://www.w3.org/2000/svg"><path d="m432 197c0 11.046875-8.953125 20-20 20h-116c-11.046875 0-20-8.953125-20-20s8.953125-20 20-20h116c11.046875 0 20 8.953125 20 20zm-216-20h-116c-11.046875 0-20 8.953125-20 20s8.953125 20 20 20h116c11.046875 0 20-8.953125 20-20s-8.953125-20-20-20zm216 100c0-11.046875-8.953125-20-20-20h-116c-11.046875 0-20 8.953125-20 20s8.953125 20 20 20h116c11.046875 0 20-8.953125 20-20zm-216-20h-116c-11.046875 0-20 8.953125-20 20s8.953125 20 20 20h116c11.046875 0 20-8.953125 20-20s-8.953125-20-20-20zm80 80c-11.046875 0-20 8.953125-20 20s8.953125 20 20 20h76c11.046875 0 20-8.953125 20-20s-8.953125-20-20-20zm-80 0h-116c-11.046875 0-20 8.953125-20 20s8.953125 20 20 20h116c11.046875 0 20-8.953125 20-20s-8.953125-20-20-20zm296-277v232c0 11.046875-8.953125 20-20 20s-20-8.953125-20-20v-171h-432v271c0 22.054688 17.945312 40 40 40h352c22.054688 0 40-17.945312 40-40 0-11.046875 8.953125-20 20-20s20 8.953125 20 20c0 44.113281-35.886719 80-80 80h-352c-44.113281 0-80-35.886719-80-80v-332c0-33.085938 26.914062-60 60-60h392c33.085938 0 60 26.914062 60 60zm-161 0c0 11.027344 8.972656 20 20 20s20-8.972656 20-20-8.972656-20-20-20-20 8.972656-20 20zm100-20c-11.027344 0-20 8.972656-20 20s8.972656 20 20 20 20-8.972656 20-20-8.972656-20-20-20zm-411 41h274.800781c-2.453125-6.539062-3.800781-13.613281-3.800781-21 0-7.011719 1.21875-13.738281 3.441406-20h-254.441406c-11.027344 0-20 8.972656-20 20zm0 0"/></svg>