<?xml version="1.0" encoding="UTF-8"?>
<svg width="19px" height="20px" viewBox="0 0 19 20" version="1.1" xmlns="http://www.w3.org/2000/svg" xmlns:xlink="http://www.w3.org/1999/xlink">
    <title>food-container</title>
    <g id="Industrialisation---admin" stroke="none" stroke-width="1" fill="none" fill-rule="evenodd">
        <g id="Gestion-des-workflow---visualiser" transform="translate(-541.000000, -701.000000)" fill="#000000" fill-rule="nonzero">
            <g id="food-container" transform="translate(541.000000, 701.000000)">
                <path d="M17.8731845,11.7812633 L16.3207109,11.7812633 C16.4201369,11.6259156 16.4861313,11.446123 16.5079657,11.2514362 L16.9127716,7.64330585 L16.9300729,7.64330585 C17.4990148,7.64330585 17.9618444,7.17893019 17.9618444,6.60817221 C17.9618444,6.03737633 17.4989771,5.57300066 16.9300729,5.57300066 L15.6084097,5.57300066 C15.6829414,5.44259043 15.7326544,5.29539096 15.7503713,5.13739029 L15.8458308,4.28629388 C15.8633211,4.13030186 15.7514668,3.98958311 15.5959814,3.9720359 C15.4403828,3.9545266 15.3002722,4.06670745 15.2827442,4.22269947 L15.1872847,5.07379588 C15.1554396,5.35777261 14.916583,5.57193949 14.6317154,5.57193949 L4.36832238,5.57193949 C4.08345478,5.57193949 3.84463593,5.35781051 3.8127909,5.07379588 L3.45682918,1.90116223 L15.5432086,1.90116223 L15.4306744,2.90461237 C15.4131842,3.06060439 15.5250384,3.20132314 15.6805238,3.21887035 C15.8360091,3.23619016 15.976233,3.1241609 15.993761,2.96820678 L16.1135104,1.90066955 C16.6265819,1.88975465 17.0406806,1.4679016 17.0406806,0.950619016 C17.0406428,0.42643883 16.6155891,0 16.0931493,0 L2.90685075,0 C2.38441091,0 1.95935717,0.42643883 1.95935717,0.950581117 C1.95935717,1.4679016 2.37345591,1.88971676 2.88652735,1.90063165 L3.24966648,5.13739029 C3.26738335,5.29539096 3.31705857,5.44259043 3.39162808,5.57300066 L2.06996483,5.57300066 C1.50102293,5.57300066 1.03815558,6.03737633 1.03815558,6.60817221 C1.03815558,7.17896809 1.50102293,7.64330585 2.06996483,7.64330585 L2.08722839,7.64330585 L2.49203427,11.2514362 C2.5138687,11.446123 2.57990087,11.6259156 2.67932687,11.7812633 L1.12681548,11.7812633 C0.505478491,11.7812633 0,12.288389 0,12.9117507 C0,13.4987673 0.453914472,14.042238 1.17188205,14.042238 L1.638187,18.1985765 C1.71532526,18.8859116 2.29340891,19.4042553 2.98285573,19.4042553 L5.1592351,19.4042553 C5.31570262,19.4042553 5.44255389,19.2769907 5.44255389,19.1200133 C5.44255389,18.9630359 5.31570262,18.8357713 5.1592351,18.8357713 L2.98285573,18.8357713 C2.58212964,18.8357713 2.24615134,18.5345126 2.20134919,18.134982 L1.74214611,14.042238 L17.2578917,14.042238 L16.7987264,18.134982 C16.7538864,18.5345126 16.4179459,18.8357713 16.017182,18.8357713 L6.48135166,18.8357713 C6.32488414,18.8357713 6.19803287,18.9630359 6.19803287,19.1200133 C6.19803287,19.2769907 6.32488414,19.4042553 6.48135166,19.4042553 L16.017182,19.4042553 C16.7066289,19.4042553 17.2846747,18.8859116 17.361813,18.1985765 L17.8281179,14.042238 C18.5460478,14.042238 19,13.4981609 19,12.9117507 C19,12.288389 18.4945593,11.7812633 17.8731845,11.7812633 Z M2.52599475,0.950581117 C2.52599475,0.739900931 2.69685486,0.568484043 2.90685075,0.568484043 L16.0931493,0.568484043 C16.3031829,0.568484043 16.4740053,0.739900931 16.4740053,0.950581117 C16.4740053,1.1612613 16.3031829,1.33267819 16.0931493,1.33267819 C15.9214203,1.33267819 3.07381995,1.33267819 2.90685075,1.33267819 C2.69685486,1.33267819 2.52599475,1.1612613 2.52599475,0.950581117 Z M1.60479316,6.60817221 C1.60479316,6.35083843 1.81346689,6.14148471 2.06996483,6.14148471 L16.9300729,6.14148471 C17.1865709,6.14148471 17.3952068,6.35083843 17.3952068,6.60817221 C17.3952068,6.86550598 17.1865709,7.07482181 16.9300729,7.07482181 C16.5970789,7.07482181 2.4618136,7.07482181 2.06996483,7.07482181 C1.81346689,7.07485971 1.60479316,6.86550598 1.60479316,6.60817221 Z M3.05515869,11.1878797 L2.65749244,7.64334375 L16.3425831,7.64334375 L15.9449169,11.1878797 C15.9069521,11.5261656 15.6224623,11.7813012 15.283122,11.7813012 L3.71691582,11.7813012 C3.37761324,11.7813012 3.09308563,11.5261656 3.05515869,11.1878797 Z M17.8731845,13.473754 C17.1645854,13.473754 1.82525295,13.473754 1.12681548,13.473754 C0.817922448,13.473754 0.566637573,13.2216503 0.566637573,12.9117507 C0.566637573,12.601889 0.817922448,12.3497473 1.12681548,12.3497473 L17.8731845,12.3497473 C18.1820776,12.3497473 18.4333624,12.6018511 18.4333624,12.9117507 C18.4333624,13.2216503 18.1820776,13.473754 17.8731845,13.473754 Z" id="Shape"></path>
            </g>
        </g>
    </g>
</svg>