<?xml version="1.0" encoding="iso-8859-1"?>
<!-- Generator: Adobe Illustrator 19.0.0, SVG Export Plug-In . SVG Version: 6.00 Build 0)  -->
<svg version="1.1" id="Capa_1" xmlns="http://www.w3.org/2000/svg" xmlns:xlink="http://www.w3.org/1999/xlink" x="0px" y="0px"
	 viewBox="0 0 496.003 496.003" style="enable-background:new 0 0 496.003 496.003;" xml:space="preserve">
<g>
	<g>
		<path d="M493.92,150.617l-80-88c-1.517-1.667-3.666-2.617-5.92-2.616H208v-48c0-4.418-3.582-8-8-8h-32c-4.418,0-8,3.582-8,8v48H8
			c-4.418,0-8,3.582-8,8v176c0,4.418,3.582,8,8,8h152v232c0,4.418,3.582,8,8,8h32c4.418,0,8-3.582,8-8v-232h200
			c2.254,0.001,4.403-0.949,5.92-2.616l80-88C496.697,158.333,496.697,153.67,493.92,150.617z M176,20.001h16v40h-16V20.001z
			 M192,476.001h-16v-224h16V476.001z M404.464,236.001H16v-160h388.464l72.72,80L404.464,236.001z"/>
	</g>
</g>
<g>
</g>
<g>
</g>
<g>
</g>
<g>
</g>
<g>
</g>
<g>
</g>
<g>
</g>
<g>
</g>
<g>
</g>
<g>
</g>
<g>
</g>
<g>
</g>
<g>
</g>
<g>
</g>
<g>
</g>
</svg>
